<?xml version="1.0" encoding="utf-8"?>
<!-- Generator: Adobe Illustrator 23.0.1, SVG Export Plug-In . SVG Version: 6.00 Build 0)  -->
<svg version="1.1" id="图层_1" xmlns="http://www.w3.org/2000/svg" xmlns:xlink="http://www.w3.org/1999/xlink" x="0px" y="0px"
	 viewBox="0 0 200 200" style="enable-background:new 0 0 200 200;" xml:space="preserve">
<style type="text/css">
	.st0{fill:#BFBFBF;}
</style>
<path class="st0" d="M38.2,48h111.6c3.4,0,6.2,2.8,6.2,6.2c0,0,0,0,0,0v3.1c0,3.4-2.8,6.2-6.2,6.2c0,0,0,0,0,0H38.2
	c-3.4,0-6.2-2.8-6.2-6.2c0,0,0,0,0,0v-3.1C32,50.8,34.8,48,38.2,48C38.2,48,38.2,48,38.2,48z"/>
<path class="st0" d="M38.2,94.3h111.6c3.4,0,6.2,2.8,6.2,6.2c0,0,0,0,0,0v3.1c0,3.4-2.8,6.2-6.2,6.2c0,0,0,0,0,0H38.2
	c-3.4,0-6.2-2.8-6.2-6.2c0,0,0,0,0,0v-3.1C32,97,34.8,94.3,38.2,94.3C38.2,94.3,38.2,94.3,38.2,94.3z"/>
<path class="st0" d="M38.2,140.6h111.6c3.4,0,6.2,2.8,6.2,6.2c0,0,0,0,0,0v3.1c0,3.4-2.8,6.2-6.2,6.2c0,0,0,0,0,0H38.2
	c-3.4,0-6.2-2.8-6.2-6.2c0,0,0,0,0,0v-3.1C32,143.3,34.8,140.6,38.2,140.6C38.2,140.6,38.2,140.6,38.2,140.6L38.2,140.6z"/>
</svg>
